<svg width="40" height="40" viewBox="0 0 40 40" fill="none" xmlns="http://www.w3.org/2000/svg">
<rect width="40" height="40" rx="20" fill="#FFF0E8"/>
<path fill-rule="evenodd" clip-rule="evenodd" d="M22.4142 20.0001L17.5742 24.8401L15 22.7807L12.3438 24.9056L11.0944 23.3439L15 20.2194L17.4258 22.1601L21 18.5859L22.4142 20.0001Z" fill="#964B00"/>
<path fill-rule="evenodd" clip-rule="evenodd" d="M16.7587 11.0001L20 11.0001V13.0001H16.8C15.9434 13.0001 15.3611 13.0008 14.911 13.0376C14.4726 13.0734 14.2484 13.1384 14.092 13.2181C13.7157 13.4098 13.4097 13.7158 13.218 14.0921C13.1383 14.2485 13.0734 14.4727 13.0376 14.9111C13.0008 15.3612 13 15.9435 13 16.8001V23.2001C13 24.0566 13.0008 24.6389 13.0376 25.089C13.0734 25.5274 13.1383 25.7516 13.218 25.908C13.4097 26.2844 13.7157 26.5903 14.092 26.7821C14.2484 26.8618 14.4726 26.9267 14.911 26.9625C15.3611 26.9993 15.9434 27.0001 16.8 27.0001H23.2C24.0566 27.0001 24.6389 26.9993 25.089 26.9625C25.5274 26.9267 25.7516 26.8618 25.908 26.7821C26.2843 26.5903 26.5903 26.2844 26.782 25.908C26.8617 25.7516 26.9266 25.5274 26.9624 25.089C26.9992 24.6389 27 24.0566 27 23.2001V20.0001H29V23.2414C29 24.0463 29 24.7107 28.9558 25.2519C28.9099 25.814 28.8113 26.3307 28.564 26.816C28.1805 27.5687 27.5686 28.1806 26.816 28.5641C26.3306 28.8114 25.8139 28.9099 25.2518 28.9559C24.7106 29.0001 24.0463 29.0001 23.2413 29.0001H16.7587C15.9537 29.0001 15.2894 29.0001 14.7482 28.9559C14.1861 28.9099 13.6694 28.8114 13.184 28.5641C12.4314 28.1806 11.8195 27.5687 11.436 26.816C11.1887 26.3307 11.0901 25.814 11.0442 25.2519C11 24.7107 11 24.0463 11 23.2414V16.7588C11 15.9538 11 15.2894 11.0442 14.7482C11.0901 14.1861 11.1887 13.6694 11.436 13.1841C11.8195 12.4315 12.4314 11.8195 13.184 11.436C13.6694 11.1887 14.1861 11.0902 14.7482 11.0443C15.2894 11 15.9537 11.0001 16.7587 11.0001Z" fill="#964B00"/>
<path fill-rule="evenodd" clip-rule="evenodd" d="M22.9594 12.9595L24.0513 9.68384H25.9487L27.0406 12.9595L30.3162 14.0514V15.9487L27.0406 17.0406L25.9487 20.3163H24.0513L22.9594 17.0406L19.6838 15.9487V14.0514L22.9594 12.9595ZM25 13.1623L24.6987 14.0663L24.0662 14.6987L23.1623 15.0001L24.0662 15.3014L24.6987 15.9338L25 16.8378L25.3013 15.9338L25.9338 15.3014L26.8377 15.0001L25.9338 14.6987L25.3013 14.0663L25 13.1623Z" fill="#964B00"/>
</svg>
