<svg width="33" height="32" viewBox="0 0 33 32" fill="none" xmlns="http://www.w3.org/2000/svg">
<path d="M8.35417 17.2365H15.0833V25.0122C15.0833 25.2373 15.2427 25.4215 15.4375 25.4215H17.5625C17.7573 25.4215 17.9167 25.2373 17.9167 25.0122V17.2365H24.6458C24.8406 17.2365 25 17.0524 25 16.8273V14.3718C25 14.1467 24.8406 13.9625 24.6458 13.9625H17.9167V6.18684C17.9167 5.96175 17.7573 5.77759 17.5625 5.77759H15.4375C15.2427 5.77759 15.0833 5.96175 15.0833 6.18684V13.9625H8.35417C8.15937 13.9625 8 14.1467 8 14.3718V16.8273C8 17.0524 8.15937 17.2365 8.35417 17.2365Z" fill="#964B00"/>
<path d="M31.68 0H1.32C0.589875 0 0 0.557684 0 1.24797V29.9512C0 30.6414 0.589875 31.1991 1.32 31.1991H31.68C32.4101 31.1991 33 30.6414 33 29.9512V1.24797C33 0.557684 32.4101 0 31.68 0ZM30.03 28.3912H2.97V2.80792H30.03V28.3912Z" fill="#964B00"/>
</svg>
